<svg width="32" height="32" viewBox="0 0 32 32" fill="none" xmlns="http://www.w3.org/2000/svg">
<path d="M16 28C22.6274 28 28 22.6274 28 16C28 9.37258 22.6274 4 16 4C9.37258 4 4 9.37258 4 16C4 22.6274 9.37258 28 16 28Z" stroke="#232323" stroke-width="2" stroke-miterlimit="10" stroke-linecap="round"/>
<path d="M15.9961 17.9995C17.1007 17.9995 17.9961 17.1041 17.9961 15.9995C17.9961 14.8949 17.1007 13.9995 15.9961 13.9995C14.8915 13.9995 13.9961 14.8949 13.9961 15.9995C13.9961 17.1041 14.8915 17.9995 15.9961 17.9995Z" stroke="#232323" stroke-width="2" stroke-miterlimit="10" stroke-linecap="round"/>
<path d="M17.5195 14.4817L21.3342 10.667" stroke="#232323" stroke-width="2" stroke-miterlimit="10" stroke-linecap="round"/>
<path d="M15.998 7.48535V8.51422" stroke="#232323" stroke-width="2" stroke-miterlimit="10" stroke-linecap="round"/>
<path d="M22.0206 9.97949L21.293 10.7085" stroke="#232323" stroke-width="2" stroke-miterlimit="10" stroke-linecap="round"/>
<path d="M24.5113 16H23.4824" stroke="#232323" stroke-width="2" stroke-miterlimit="10" stroke-linecap="round"/>
<path d="M21.6582 21.6572L21.8993 21.8983" stroke="#232323" stroke-width="2" stroke-miterlimit="10" stroke-linecap="round"/>
<path d="M10.3485 21.6572L10.1074 21.8983" stroke="#232323" stroke-width="2" stroke-miterlimit="10" stroke-linecap="round"/>
<path d="M10.3485 10.3471L10.1074 10.106" stroke="#232323" stroke-width="2" stroke-miterlimit="10" stroke-linecap="round"/>
<path d="M15.998 24.5147V23.4858" stroke="#232323" stroke-width="2" stroke-miterlimit="10" stroke-linecap="round"/>
<path d="M7.48242 16H8.51129" stroke="#232323" stroke-width="2" stroke-miterlimit="10" stroke-linecap="round"/>
</svg>
