<svg width="32" height="32" viewBox="0 0 32 32" fill="none" xmlns="http://www.w3.org/2000/svg">
<path d="M19 22.0638L21.0817 23.9095C21.2178 24.0302 21.4392 24.0302 21.5753 23.9095L26 20" stroke="#232323" stroke-width="2" stroke-miterlimit="10" stroke-linecap="round"/>
<path d="M12.0436 28H5.40714C5.17643 28 5 27.8146 5 27.6026V4.39735C5 4.17219 5.17643 4 5.40714 4H23.5929C23.81 4 24 4.17219 24 4.39735V11.6954" stroke="#232323" stroke-width="2" stroke-miterlimit="10" stroke-linecap="round"/>
<path d="M9 9H19" stroke="#232323" stroke-width="2" stroke-miterlimit="10" stroke-linecap="round"/>
<path d="M9 15H14" stroke="#232323" stroke-width="2" stroke-miterlimit="10" stroke-linecap="round"/>
<path d="M22.8965 17.1424C22.4862 17.0518 22.0626 17 21.6258 17C18.515 17 16 19.4588 16 22.5C16 25.5412 18.515 28 21.6258 28C24.154 28 26.2852 26.3824 27 24.1306" stroke="#232323" stroke-width="2" stroke-miterlimit="10" stroke-linecap="round"/>
</svg>
