<svg width="32" height="32" viewBox="0 0 32 32" fill="none" xmlns="http://www.w3.org/2000/svg">
<path d="M5.33333 9.68555H28V24.7452C28 25.4379 27.4027 26.0001 26.6667 26.0001H5.33333C4.59733 26.0001 4 25.4379 4 24.7452V10.9405C4 10.2478 4.59733 9.68555 5.33333 9.68555Z" stroke="#232323" stroke-width="2" stroke-miterlimit="10" stroke-linecap="round"/>
<path d="M10.6547 6H26.676C27.4067 6 27.9987 6.55847 27.9987 7.24493V9.68584H9.33203V7.24493C9.33203 6.55721 9.92537 6 10.6547 6Z" stroke="#232323" stroke-width="2" stroke-miterlimit="10" stroke-linecap="round"/>
<path d="M14.3961 14.0767H8.26276C8.11548 14.0767 7.99609 14.189 7.99609 14.3277V21.3555C7.99609 21.4941 8.11548 21.6065 8.26276 21.6065H14.3961C14.5434 21.6065 14.6628 21.4941 14.6628 21.3555V14.3277C14.6628 14.189 14.5434 14.0767 14.3961 14.0767Z" stroke="#232323" stroke-width="2" stroke-miterlimit="10" stroke-linecap="round"/>
<path d="M18.666 14.0767H23.9993" stroke="#232323" stroke-width="2" stroke-miterlimit="10" stroke-linecap="round"/>
</svg>
