<svg width="32" height="32" viewBox="0 0 32 32" fill="none" xmlns="http://www.w3.org/2000/svg">
<path d="M8.23487 12.334H5.41162C4.63183 12.334 4 12.9603 4 13.7332V17.9309C4 18.7039 4.63183 19.3302 5.41162 19.3302H8.23487" stroke="#232323" stroke-width="2" stroke-miterlimit="10" stroke-linecap="round"/>
<path d="M8.23633 12.3341C8.23633 12.3341 12.9777 12.3341 15.5211 10.0285C15.7863 9.78933 16.2115 9.78933 16.4768 10.0285C19.0215 12.3341 23.7615 12.3341 23.7615 12.3341" stroke="#232323" stroke-width="2" stroke-miterlimit="10" stroke-linecap="round"/>
<path d="M6.82422 12.3333C6.82422 9.33137 9.47951 4 15.9991 4" stroke="#232323" stroke-width="2" stroke-miterlimit="10" stroke-linecap="round"/>
<path d="M8.23633 13.0332V16.886C8.23633 19.4467 9.33737 24.4358 15.1225 26.1059C15.6903 26.2698 16.3062 26.2698 16.874 26.1059C22.6592 24.4358 23.7602 19.4467 23.7602 16.886C23.7602 15.212 23.7602 13.0332 23.7602 13.0332" stroke="#232323" stroke-width="2" stroke-miterlimit="10" stroke-linecap="round"/>
<path d="M23.7637 12.334H26.5869C27.3667 12.334 27.9985 12.9603 27.9985 13.7332V17.9309C27.9985 18.7039 27.3667 19.3302 26.5869 19.3302H23.7637" stroke="#232323" stroke-width="2" stroke-miterlimit="10" stroke-linecap="round"/>
<path d="M25.1729 12.3333C25.1729 9.33137 22.5176 4 15.998 4" stroke="#232323" stroke-width="2" stroke-miterlimit="10" stroke-linecap="round"/>
<path d="M16 21.3947H24.1432C24.799 21.3947 25.3322 20.8676 25.3322 20.2162V19.3296" stroke="#232323" stroke-width="2" stroke-miterlimit="10" stroke-linecap="round"/>
<path d="M10.6649 24.0361C8.15089 24.9359 5.42762 26.0181 4 28" stroke="#232323" stroke-width="2" stroke-miterlimit="10" stroke-linecap="round"/>
<path d="M21.3359 24.0361C23.8499 24.9359 26.5732 26.0181 28.0008 28" stroke="#232323" stroke-width="2" stroke-miterlimit="10" stroke-linecap="round"/>
</svg>
