<svg width="32" height="32" viewBox="0 0 32 32" fill="none" xmlns="http://www.w3.org/2000/svg">
<path d="M11.0968 20.8439H18.6059V7.41532C18.6059 7.18551 18.4317 7 18.2158 7H3.39008C3.17424 7 3 7.18551 3 7.41532V20.4286C3 20.6584 3.17424 20.8439 3.39008 20.8439H7.90854" stroke="#232323" stroke-width="2" stroke-miterlimit="10" stroke-linecap="round"/>
<path d="M9.49163 25C10.7491 25 11.7684 23.9147 11.7684 22.5759C11.7684 21.2371 10.7491 20.1519 9.49163 20.1519C8.23419 20.1519 7.21484 21.2371 7.21484 22.5759C7.21484 23.9147 8.23419 25 9.49163 25Z" stroke="#232323" stroke-width="2" stroke-miterlimit="10" stroke-linecap="round"/>
<path d="M23.7983 25C25.0557 25 26.075 23.9147 26.075 22.5759C26.075 21.2371 25.0557 20.1519 23.7983 20.1519C22.5408 20.1519 21.5215 21.2371 21.5215 22.5759C21.5215 23.9147 22.5408 25 23.7983 25Z" stroke="#232323" stroke-width="2" stroke-miterlimit="10" stroke-linecap="round"/>
<path d="M18.5996 8.38379H25.9176C26.2127 8.38379 26.4832 8.56099 26.6158 8.84341L28.9186 13.7469C28.9732 13.8618 29.0005 13.9892 29.0005 14.1179V20.428C29.0005 20.6578 28.8263 20.8433 28.6104 20.8433H25.7498" stroke="#232323" stroke-width="2" stroke-miterlimit="10" stroke-linecap="round"/>
<path d="M22.209 20.8442H18.4746" stroke="#232323" stroke-width="2" stroke-miterlimit="10" stroke-linecap="round"/>
</svg>
