<svg width="32" height="32" viewBox="0 0 32 32" fill="none" xmlns="http://www.w3.org/2000/svg">
<path d="M10.6616 20.6807C11.2751 21.237 11.6619 22.0512 11.6619 22.9468C11.6619 24.6295 10.3148 26 8.66101 26C7.0072 26 5.66016 24.6295 5.66016 22.9468C5.66016 22.0512 6.04693 21.237 6.66044 20.6807" stroke="#232323" stroke-width="2" stroke-miterlimit="10" stroke-linecap="round"/>
<path d="M24.9989 25.9985C26.6562 25.9985 27.9997 24.6315 27.9997 22.9453C27.9997 21.2591 26.6562 19.8921 24.9989 19.8921C23.3416 19.8921 21.998 21.2591 21.998 22.9453C21.998 24.6315 23.3416 25.9985 24.9989 25.9985Z" stroke="#232323" stroke-width="2" stroke-miterlimit="10" stroke-linecap="round"/>
<path d="M22.3865 12.4287L19.9285 19.7564C19.7445 20.306 19.2363 20.6751 18.6668 20.6751H14.7164V17.2256C14.7164 15.3259 13.2026 13.7857 11.3354 13.7857H7.8571C5.72716 13.7857 4 15.543 4 17.7101V20.6751H15.5033" stroke="#232323" stroke-width="2" stroke-miterlimit="10" stroke-linecap="round"/>
<path d="M24.9995 22.9445L21.4758 7.62828C21.3905 7.26054 21.0677 7 20.6969 7H19.998" stroke="#232323" stroke-width="2" stroke-miterlimit="10" stroke-linecap="round"/>
<path d="M11.995 9.7124H6.66016" stroke="#232323" stroke-width="2" stroke-miterlimit="10" stroke-linecap="round"/>
</svg>
