<svg width="32" height="32" viewBox="0 0 32 32" fill="none" xmlns="http://www.w3.org/2000/svg">
<path d="M24.9866 13.3481C24.5912 20.3235 17.7288 26.6607 16.2729 27.9303C16.1159 28.0678 15.8845 28.0624 15.7274 27.9249C14.2178 26.602 7 19.9016 7 12.7247C7 7.76653 11.2673 3.77491 16.4368 4.00987C21.3873 4.23548 25.2579 8.55151 24.9866 13.3481Z" stroke="#232323" stroke-width="2" stroke-miterlimit="10" stroke-linecap="round"/>
<path d="M16.004 15.8402C17.7796 15.8402 19.2189 14.4451 19.2189 12.7243C19.2189 11.0034 17.7796 9.6084 16.004 9.6084C14.2284 9.6084 12.7891 11.0034 12.7891 12.7243C12.7891 14.4451 14.2284 15.8402 16.004 15.8402Z" stroke="#232323" stroke-width="2" stroke-miterlimit="10" stroke-linecap="round"/>
</svg>
