<svg width="32" height="32" viewBox="0 0 32 32" fill="none" xmlns="http://www.w3.org/2000/svg">
<path d="M23.3686 14.6657C23.4538 14.2257 23.5105 13.7856 23.5389 13.3321C23.8086 8.54453 19.8198 4.22367 14.7237 4.0103C9.40051 3.77025 5 7.7577 5 12.7053C5 18.7065 10.2096 24.3743 12.8074 26.8415" stroke="#232323" stroke-width="2" stroke-miterlimit="10" stroke-linecap="round"/>
<path d="M14.2721 15.8224C16.1019 15.8224 17.5853 14.4288 17.5853 12.7098C17.5853 10.9907 16.1019 9.59717 14.2721 9.59717C12.4423 9.59717 10.959 10.9907 10.959 12.7098C10.959 14.4288 12.4423 15.8224 14.2721 15.8224Z" stroke="#232323" stroke-width="2" stroke-miterlimit="10" stroke-linecap="round"/>
<path d="M26.9972 26.1599V27.6001C26.9972 27.8135 26.7984 28.0002 26.5713 28.0002H17.4864C17.2451 28.0002 17.0605 27.8135 17.0605 27.6001V19.0651C17.0605 18.8384 17.2451 18.665 17.4864 18.665H22.9374" stroke="#232323" stroke-width="2" stroke-miterlimit="10" stroke-linecap="round"/>
<path d="M20.2754 22.6185L22.2755 24.4975C22.4061 24.6202 22.619 24.6202 22.7496 24.4975L26.9997 20.5181" stroke="#232323" stroke-width="2" stroke-miterlimit="10" stroke-linecap="round"/>
</svg>
