<svg width="32" height="32" viewBox="0 0 32 32" fill="none" xmlns="http://www.w3.org/2000/svg">
<path d="M28 9.29102V22.6753C28 22.8369 27.904 22.9824 27.7547 23.0439L16.1553 27.9353C16.0567 27.9767 15.9447 27.9767 15.8447 27.9353L4.24532 23.0439C4.09732 22.9811 4 22.8355 4 22.6753V9.29102C4 9.12944 4.09599 8.98389 4.24532 8.92246L15.8447 4.03105C15.9433 3.98965 16.0553 3.98965 16.1553 4.03105L27.7547 8.92246C27.9027 8.98522 28 9.13078 28 9.29102Z" stroke="#232323" stroke-width="2" stroke-miterlimit="10" stroke-linecap="round"/>
<path d="M22.6698 11.3078L15.9595 14.0987L4.24414 9.15918" stroke="#232323" stroke-width="2" stroke-miterlimit="10" stroke-linecap="round"/>
<path d="M11.9986 17.1381L7.91211 15.4155" stroke="#232323" stroke-width="2" stroke-miterlimit="10" stroke-linecap="round"/>
<path d="M11.9986 21.7069L7.91211 19.9829" stroke="#232323" stroke-width="2" stroke-miterlimit="10" stroke-linecap="round"/>
<path d="M15.9629 14.0991V28.0002" stroke="#232323" stroke-width="2" stroke-miterlimit="10" stroke-linecap="round"/>
</svg>
