<svg width="32" height="32" viewBox="0 0 32 32" fill="none" xmlns="http://www.w3.org/2000/svg">
<path d="M19.6283 4H12.373C12.1686 4 11.9719 4.084 11.8279 4.23465L7.22629 9.00639C7.081 9.15705 7 9.35971 7 9.5717V27.6C7 27.8213 7.17229 28 7.38571 28H24.6143C24.8277 28 25 27.8213 25 27.6V9.5717C25 9.35971 24.919 9.15572 24.7737 9.00639L20.1721 4.23465C20.0269 4.084 19.8314 4 19.627 4H19.6283Z" stroke="#232323" stroke-width="2" stroke-miterlimit="10" stroke-linecap="round"/>
<path d="M19.849 13.3359L12.1348 21.3355" stroke="#232323" stroke-width="2" stroke-miterlimit="10" stroke-linecap="round"/>
<path d="M12.7771 14.668C13.1318 14.668 13.4194 14.3698 13.4194 14.002C13.4194 13.6341 13.1318 13.3359 12.7771 13.3359C12.4223 13.3359 12.1348 13.6341 12.1348 14.002C12.1348 14.3698 12.4223 14.668 12.7771 14.668Z" stroke="#232323" stroke-width="2" stroke-miterlimit="10" stroke-linecap="round"/>
<path d="M19.8532 21.3345C20.208 21.3345 20.4955 21.0363 20.4955 20.6685C20.4955 20.3006 20.208 20.0024 19.8532 20.0024C19.4985 20.0024 19.2109 20.3006 19.2109 20.6685C19.2109 21.0363 19.4985 21.3345 19.8532 21.3345Z" stroke="#232323" stroke-width="2" stroke-miterlimit="10" stroke-linecap="round"/>
</svg>
