<svg width="32" height="32" viewBox="0 0 32 32" fill="none" xmlns="http://www.w3.org/2000/svg">
<path d="M23.5972 8.2373H4.39994C4.17906 8.2373 4 8.42691 4 8.66079V27.5765C4 27.8104 4.17906 28 4.39994 28H23.5972C23.8181 28 23.9971 27.8104 23.9971 27.5765V8.66079C23.9971 8.42691 23.8181 8.2373 23.5972 8.2373Z" stroke="#232323" stroke-width="2" stroke-miterlimit="10" stroke-linecap="round"/>
<path d="M17.8343 22.9917H13.435C11.226 22.9917 9.43555 21.0959 9.43555 18.7568C9.43555 16.4178 11.226 14.522 13.435 14.522H18.153" stroke="#232323" stroke-width="2" stroke-miterlimit="10" stroke-linecap="round"/>
<path d="M16.2383 12.1304L18.3753 14.3932C18.4353 14.4567 18.4353 14.5696 18.3753 14.6318L16.2383 16.8946" stroke="#232323" stroke-width="2" stroke-miterlimit="10" stroke-linecap="round"/>
<path d="M23.8383 27.9124L27.9111 22.4678C27.9671 22.393 27.9977 22.2998 27.9977 22.2052V4.42446C27.9977 4.19013 27.8191 4.00098 27.5978 4.00098H9.47239C9.38307 4.00098 9.29508 4.03345 9.22443 4.09274L4.14648 8.34029" stroke="#232323" stroke-width="2" stroke-miterlimit="10" stroke-linecap="round"/>
<path d="M28 4L23.6699 8.58494" stroke="#232323" stroke-width="2" stroke-miterlimit="10" stroke-linecap="round"/>
</svg>
