<svg width="32" height="32" viewBox="0 0 32 32" fill="none" xmlns="http://www.w3.org/2000/svg">
<path d="M27.1997 10.3501H12.7981C12.3563 10.3501 11.998 10.7292 11.998 11.1969V22.2054C11.998 22.6731 12.3563 23.0522 12.7981 23.0522H27.1997C27.6416 23.0522 27.9998 22.6731 27.9998 22.2054V11.1969C27.9998 10.7292 27.6416 10.3501 27.1997 10.3501Z" stroke="#232323" stroke-width="2" stroke-miterlimit="10" stroke-linecap="round"/>
<path d="M18.4016 4L19.6391 6.38236C19.7137 6.5249 19.5737 6.68581 19.4337 6.62089L18.3349 6.10998C17.1881 5.65835 15.9613 5.41841 14.6679 5.41841C8.77387 5.41841 4 10.471 4 16.7092C4 22.9474 8.77387 28 14.6679 28C15.988 28 17.2415 27.746 18.4016 27.2802" stroke="#232323" stroke-width="2" stroke-miterlimit="10" stroke-linecap="round"/>
<path d="M22.9628 16.5459L20.1438 15.3519C20.0478 15.3109 19.9425 15.3109 19.8465 15.3519L17.0275 16.5459C16.8528 16.6207 16.6621 16.4838 16.6621 16.2834V10.3486H23.3295V16.2834C23.3295 16.4824 23.1388 16.6193 22.9641 16.5459H22.9628Z" stroke="#232323" stroke-width="2" stroke-miterlimit="10" stroke-linecap="round"/>
</svg>
